<?xml version="1.0" encoding="utf-8"?>
<!-- Generator: Adobe Illustrator 25.0.1, SVG Export Plug-In . SVG Version: 6.00 Build 0)  -->
<svg width="88" height="76" version="1.1" id="Layer_1" xmlns="http://www.w3.org/2000/svg" xmlns:xlink="http://www.w3.org/1999/xlink" x="0px" y="0px"
	 viewBox="0 0 110 93.4" style="enable-background:new 0 0 110 93.4;" xml:space="preserve">
<style type="text/css">
	.st0{fill:#FFFFFF;}
</style>
<path class="st0" d="M20.1,40.8c0.9-1.9,3.3-2.4,5-1.2c1.4,1,1.9,2.8,1.3,4.4c-1.1,3.1-1.7,6.5-1.7,10c0,16.8,13.6,30.5,30.5,30.5
	c16.8,0,30.5-13.6,30.5-30.5c0-4.2-0.9-8.2-2.4-11.9c-0.7-1.6-0.3-3.6,1.1-4.6c1.7-1.3,4.2-0.9,5.2,1c2.4,4.7,3.8,9.6,3.8,15.5
	c0,21-17,38.1-38.1,38.1c-21,0-38.1-17-38.1-38.1C17.1,48.7,18.2,44.8,20.1,40.8z"/>
<path class="st0" d="M69.7,28c1.6,1.6,4.3,1.6,5.9,0c1.6-1.6,1.6-4.3,0-5.9L58.1,4.8c-1.6-1.6-4.2-1.6-5.9,0L34.8,22.1
	c-1.6,1.6-1.6,4.2,0,5.9c1.6,1.6,4.2,1.6,5.9,0L51,17.7v29.7c0,2.3,1.9,4.2,4.2,4.2c2.3,0,4.2-1.9,4.2-4.2V17.7L69.7,28z"/>
</svg>
