<svg width="120" height="32" viewBox="0 0 120 32" fill="none" xmlns="http://www.w3.org/2000/svg">
<g clip-path="url(#clip0_7621_295)">
<path d="M0.0915772 12.3714C0.0396748 7.70374 -0.110179 6.09047 1.10075 4.15838C3.06016 1.03213 5.48546 0.278571 7 0.0475466L23.3884 0.0475478C27.5 1.11695e-06 29.9632 2.48852 29.9632 2.48852C32.2926 5.05789 32.2926 7.7814 32.2926 7.7814V19.6027C32.2926 23.916 32.2153 24.1478 32.2153 24.1478C32.2153 24.1478 32.2153 27.5395 29.1866 30.1342C27.0102 31.9992 24.9091 32.0952 20.0803 31.9582H12.6687C8.70504 31.8637 7.20338 32.3519 4.32846 30.8874C1.56475 29.479 0.473236 27.4696 0.0915772 24.2755C-0.114472 22.5517 0.0915772 23.9469 0.0915772 19.6335V12.3714Z" fill="url(#paint0_linear_7621_295)"/>
<path d="M13.1812 9.60085L12.0686 10.3525C11.9808 10.4407 11.9535 10.4953 12.0686 10.5765L12.1771 10.6647L13.6612 11.7015C13.6612 11.7015 15.1348 10.9011 15.4493 10.7661C16.0035 10.5175 16.6037 10.3903 17.2105 10.3931C17.6218 10.4208 18.03 10.4824 18.4308 10.578C18.9428 10.7255 19.4275 10.9542 19.8673 11.2559L20.2852 11.5337C20.3008 11.5493 20.3192 11.5618 20.3395 11.5708C20.3601 11.5798 20.382 11.5841 20.4042 11.5841C20.4265 11.5841 20.4487 11.5794 20.4694 11.5708C20.4897 11.5618 20.5077 11.5493 20.5233 11.5337C20.5404 11.5212 20.5541 11.5052 20.5638 11.4865C20.6575 11.341 20.732 11.1837 20.7847 11.019C20.8198 10.8883 20.8382 10.7536 20.839 10.6182C20.8397 10.425 20.8003 10.2334 20.7235 10.0563C20.647 9.8791 20.5346 9.71949 20.3933 9.58798L20.108 9.33783C19.7646 9.0069 19.3705 8.73334 18.9408 8.52768L18.6138 8.36417C18.0394 8.14681 17.4302 8.03676 16.8163 8.0391C16.1459 8.06329 15.0181 8.36456 13.1816 9.60164L13.1812 9.60085Z" fill="#FCFCFC"/>
<g opacity="0.9">
<path d="M8.8123 13.0796C8.80215 13.194 8.80215 13.3087 8.8123 13.4231C8.86732 13.6978 9.0203 13.9436 9.24313 14.1161L9.64742 14.44C11.7622 16.019 13.9483 17.53 16.1087 19.0223L16.4353 19.2096C16.5774 19.2841 16.7327 19.331 16.8923 19.3466H16.9442C17.2018 19.3466 17.4519 19.2623 17.656 19.1073L19.6599 17.7079C20.3128 17.2221 21.0172 16.7425 21.6634 16.2391C21.8765 16.0701 22.0743 15.8839 22.2554 15.6818C22.7549 15.1019 23.0679 14.387 23.1542 13.6287C23.1542 13.3825 23.1858 13.1038 23.1858 12.8123V11.3552C23.1889 11.3271 23.1889 11.2986 23.1858 11.2709V11.297C23.1803 11.585 23.1319 11.8711 23.0425 12.1454C22.7862 12.9259 22.2874 13.6057 21.6178 14.088C20.351 15.0008 19.0788 15.9144 17.7801 16.7952L17.4839 16.9637C17.3403 17.0363 17.1815 17.0738 17.0207 17.0738H16.9426C16.8634 17.0707 16.785 17.0586 16.7089 17.0371C16.6492 17.0215 16.5918 16.9985 16.538 16.9688L16.0747 16.6952C14.5208 15.6373 12.9813 14.5579 11.4566 13.4566L9.45269 11.9511L9.15883 11.6775C9.02966 11.5468 8.94381 11.3805 8.9122 11.2002V11.1304C8.89152 11.1304 8.81152 13.0804 8.81152 13.0804L8.8123 13.0796Z" fill="url(#paint1_radial_7621_295)"/>
</g>
<path d="M23.0475 17.1125C23.0705 17.0442 23.1021 16.9462 23.1353 16.8498V18.1494C23.1345 18.3968 23.1154 18.6438 23.0771 18.8885C22.9499 19.7388 22.5187 20.515 21.8627 21.0762L21.2707 21.5609C20.5932 22.0647 19.8963 22.5498 19.1919 23.0348L17.6805 24.0756L17.547 24.1517C17.378 24.2594 17.1813 24.316 16.9808 24.3148C16.8625 24.316 16.7454 24.2957 16.6346 24.2551C16.475 24.2013 16.3244 24.124 16.1878 24.0264L11.6208 20.8612L9.36359 19.1909C9.23324 19.0996 9.12319 18.9825 9.04007 18.8475C8.95734 18.7144 8.90232 18.5654 8.87968 18.4104C8.87344 18.3191 8.87344 18.2278 8.87968 18.1365V16.5942C8.90583 16.6532 8.93861 16.7094 8.97685 16.7613C9.08339 16.8873 9.20632 16.9985 9.3429 17.0918L10.8231 18.1915C12.2424 19.2335 13.6836 20.2446 15.1462 21.2245L16.0926 21.8715L16.4969 22.085H16.505C16.6705 22.1494 16.8489 22.1743 17.0256 22.1583C17.202 22.1427 17.3726 22.0865 17.5236 21.9948L17.7125 21.8918H17.7156L21.501 19.2112C21.8307 18.9759 22.1242 18.6938 22.3716 18.3741C22.6721 17.9976 22.9011 17.5698 23.0475 17.1121V17.1125Z" fill="url(#paint2_radial_7621_295)"/>
<g opacity="0.9">
<g opacity="0.9">
<path d="M23.0479 17.1125C23.0709 17.0442 23.1025 16.9462 23.1357 16.8498V18.1494C23.1349 18.3968 23.1158 18.6438 23.0775 18.8885C22.9503 19.7388 22.5191 20.515 21.8631 21.0762L21.2711 21.5609C20.5936 22.0647 19.8967 22.5498 19.1923 23.0348L17.6809 24.0756L17.5474 24.1517C17.3784 24.2594 17.1817 24.316 16.9811 24.3148C16.8629 24.316 16.7458 24.2957 16.635 24.2551C16.4754 24.2013 16.3248 24.124 16.1882 24.0264L11.6211 20.8612L9.36398 19.1909C9.23363 19.0996 9.12359 18.9825 9.04046 18.8475C8.95734 18.714 8.90271 18.5654 8.87968 18.4104C8.87344 18.3191 8.87344 18.2278 8.87968 18.1365V16.5942C8.90583 16.6532 8.93861 16.7094 8.97685 16.7613C9.08339 16.8873 9.20632 16.9981 9.3429 17.0918L10.8231 18.1915C12.2424 19.2338 13.6836 20.2446 15.1462 21.2245L16.093 21.8715L16.4972 22.085H16.5054C16.6709 22.1494 16.8492 22.1743 17.026 22.1583C17.2024 22.1427 17.373 22.0865 17.524 21.9948L17.7129 21.8922H17.716L21.5013 19.2116C21.8311 18.9763 22.1246 18.6941 22.372 18.3745C22.6725 17.9979 22.9015 17.5702 23.0479 17.1125Z" fill="url(#paint3_radial_7621_295)"/>
</g>
</g>
<path d="M13.1812 9.60085L12.0686 10.3525C11.9808 10.4407 11.9535 10.4953 12.0686 10.5765L12.1771 10.6647L13.6612 11.7015C13.6612 11.7015 15.1348 10.9011 15.4493 10.7661C16.0035 10.5175 16.6037 10.3903 17.2105 10.3931C17.6218 10.4208 18.03 10.4824 18.4308 10.578C18.9428 10.7255 19.4275 10.9542 19.8673 11.2559L20.2852 11.5337C20.3008 11.5493 20.3192 11.5618 20.3395 11.5708C20.3601 11.5798 20.382 11.5841 20.4042 11.5841C20.4265 11.5841 20.4487 11.5794 20.4694 11.5708C20.4897 11.5618 20.5077 11.5493 20.5233 11.5337C20.5404 11.5212 20.5541 11.5052 20.5638 11.4865C20.6575 11.341 20.732 11.1837 20.7847 11.019C20.8198 10.8883 20.8382 10.7536 20.839 10.6182C20.8397 10.425 20.8003 10.2334 20.7235 10.0563C20.647 9.8791 20.5346 9.71949 20.3933 9.58798L20.108 9.33783C19.7646 9.0069 19.3705 8.73334 18.9408 8.52768L18.6138 8.36417C18.0394 8.14681 17.4302 8.03676 16.8163 8.0391C16.1459 8.06329 15.0181 8.36456 13.1816 9.60164L13.1812 9.60085Z" fill="white"/>
<g opacity="0.9">
<path d="M8.8123 13.0796C8.80215 13.194 8.80215 13.3087 8.8123 13.4231C8.86732 13.6978 9.0203 13.9436 9.24313 14.1161L9.64742 14.44C11.7622 16.019 13.9483 17.53 16.1087 19.0223L16.4353 19.2096C16.5774 19.2841 16.7327 19.331 16.8923 19.3466H16.9442C17.2018 19.3466 17.4519 19.2623 17.656 19.1073L19.6599 17.7079C20.3128 17.2221 21.0172 16.7425 21.6634 16.2391C21.8765 16.0701 22.0743 15.8839 22.2554 15.6818C22.7549 15.1019 23.0679 14.387 23.1542 13.6287C23.1542 13.3825 23.1858 13.1038 23.1858 12.8123V11.3552C23.1889 11.3271 23.1889 11.2986 23.1858 11.2709V11.297C23.1803 11.585 23.1319 11.8711 23.0425 12.1454C22.7862 12.9259 22.2874 13.6057 21.6178 14.088C20.351 15.0008 19.0788 15.9144 17.7801 16.7952L17.4839 16.9637C17.3403 17.0363 17.1815 17.0738 17.0207 17.0738H16.9426C16.8634 17.0707 16.785 17.0586 16.7089 17.0371C16.6492 17.0215 16.5918 16.9985 16.538 16.9688L16.0747 16.6952C14.5208 15.6373 12.9813 14.5579 11.4566 13.4566L9.45269 11.9511L9.15883 11.6775C9.02966 11.5468 8.94381 11.3805 8.9122 11.2002V11.1304C8.89152 11.1304 8.81152 13.0804 8.81152 13.0804L8.8123 13.0796Z" fill="url(#paint4_radial_7621_295)"/>
</g>
<path d="M23.0475 17.1125C23.0705 17.0442 23.1021 16.9462 23.1353 16.8498V18.1494C23.1345 18.3968 23.1154 18.6438 23.0771 18.8885C22.9499 19.7388 22.5187 20.515 21.8627 21.0762L21.2707 21.5609C20.5932 22.0647 19.8963 22.5498 19.1919 23.0348L17.6805 24.0756L17.547 24.1517C17.378 24.2594 17.1813 24.316 16.9808 24.3148C16.8625 24.316 16.7454 24.2957 16.6346 24.2551C16.475 24.2013 16.3244 24.124 16.1878 24.0264L11.6208 20.8612L9.36359 19.1909C9.23324 19.0996 9.12319 18.9825 9.04007 18.8475C8.95734 18.7144 8.90232 18.5654 8.87968 18.4104C8.87344 18.3191 8.87344 18.2278 8.87968 18.1365V16.5942C8.90583 16.6532 8.93861 16.7094 8.97685 16.7613C9.08339 16.8873 9.20632 16.9985 9.3429 17.0918L10.8231 18.1915C12.2424 19.2335 13.6836 20.2446 15.1462 21.2245L16.0926 21.8715L16.4969 22.085H16.505C16.6705 22.1494 16.8489 22.1743 17.0256 22.1583C17.202 22.1427 17.3726 22.0865 17.5236 21.9948L17.7125 21.8918H17.7156L21.501 19.2112C21.8307 18.9759 22.1242 18.6938 22.3716 18.3741C22.6721 17.9976 22.9011 17.5698 23.0475 17.1121V17.1125Z" fill="url(#paint5_radial_7621_295)"/>
<g opacity="0.9">
<g opacity="0.9">
<path d="M23.0479 17.1125C23.0709 17.0442 23.1025 16.9462 23.1357 16.8498V18.1494C23.1349 18.3968 23.1158 18.6438 23.0775 18.8885C22.9503 19.7388 22.5191 20.515 21.8631 21.0762L21.2711 21.5609C20.5936 22.0647 19.8967 22.5498 19.1923 23.0348L17.6809 24.0756L17.5474 24.1517C17.3784 24.2594 17.1817 24.316 16.9811 24.3148C16.8629 24.316 16.7458 24.2957 16.635 24.2551C16.4754 24.2013 16.3248 24.124 16.1882 24.0264L11.6211 20.8612L9.36398 19.1909C9.23363 19.0996 9.12359 18.9825 9.04046 18.8475C8.95734 18.714 8.90271 18.5654 8.87968 18.4104C8.87344 18.3191 8.87344 18.2278 8.87968 18.1365V16.5942C8.90583 16.6532 8.93861 16.7094 8.97685 16.7613C9.08339 16.8873 9.20632 16.9981 9.3429 17.0918L10.8231 18.1915C12.2424 19.2338 13.6836 20.2446 15.1462 21.2245L16.093 21.8715L16.4972 22.085H16.5054C16.6709 22.1494 16.8492 22.1743 17.026 22.1583C17.2024 22.1427 17.373 22.0865 17.524 21.9948L17.7129 21.8922H17.716L21.5013 19.2116C21.8311 18.9763 22.1246 18.6941 22.372 18.3745C22.6725 17.9979 22.9015 17.5702 23.0479 17.1125Z" fill="url(#paint6_radial_7621_295)"/>
</g>
</g>
<path d="M58.04 25H61.568L64.808 11.104C65.096 9.856 65.528 9.568 66.512 9.448V8.32H61.28V9.448C62.216 9.472 62.744 9.688 62.744 10.432C62.744 10.6 62.72 10.768 62.672 11.008L61.28 17.776C60.896 19.648 60.752 21.208 60.728 21.664H60.584C60.512 21.112 60.248 19.672 59.768 17.752L57.368 8.32H54.824L52.568 17.8C52.112 19.744 51.92 21.28 51.848 21.688H51.728C51.704 21.184 51.56 19.336 51.248 17.8L49.832 10.84C49.784 10.672 49.784 10.552 49.784 10.408C49.784 9.784 50.216 9.472 51.176 9.448V8.32H44.408V9.448C45.344 9.568 45.704 9.856 45.992 11.104L49.184 25H52.736L54.656 17.152C55.04 15.568 55.232 14.056 55.304 13.576H55.424C55.472 14.08 55.688 15.808 56.024 17.128L58.04 25ZM77.6969 21.4C77.6969 19.216 77.7929 17.224 77.7929 16.504C77.7929 13.696 75.8729 12.472 73.1129 12.472C71.1689 12.472 69.2009 13.072 67.9289 13.816V16.264H70.5689C70.7369 14.992 71.1209 14.08 72.4889 14.08C73.7609 14.08 74.2169 14.872 74.2169 16.72V17.824C73.9049 17.8 73.3529 17.776 73.0649 17.776C69.2969 17.776 67.1609 18.952 67.1609 21.784C67.1609 24.256 68.8409 25.336 70.9769 25.336C72.8729 25.336 73.9049 24.328 74.3129 23.464C74.5049 24.472 75.2969 25.144 76.7849 25.144C77.8409 25.144 78.7289 24.88 79.2329 24.568V23.536C77.9609 23.488 77.6969 23.2 77.6969 21.4ZM74.1689 19.168L74.0969 22.216C73.6649 22.768 72.8969 23.104 72.2729 23.104C71.3609 23.104 70.8329 22.696 70.8329 21.328C70.8329 19.864 71.6969 19.168 73.3289 19.168H74.1689ZM85.6659 9.76C85.6659 8.32 85.3539 7.624 85.2339 7.384H84.8739L80.5299 8.032V9.088C81.7539 9.136 82.1139 9.376 82.1139 11.128V22.24C82.1139 23.608 81.8499 23.896 80.6259 23.92V25H87.1539V23.92C85.9059 23.896 85.6659 23.584 85.6659 22.216V9.76ZM93.7424 9.76C93.7424 8.32 93.4304 7.624 93.3104 7.384H92.9504L88.6064 8.032V9.088C89.8304 9.136 90.1904 9.376 90.1904 11.128V22.24C90.1904 23.608 89.9264 23.896 88.7024 23.92V25H95.2304V23.92C93.9824 23.896 93.7424 23.584 93.7424 22.216V9.76ZM104.267 23.224C101.963 23.224 101.051 22.12 100.955 19.408H108.251V18.376C108.251 14.704 106.715 12.472 102.947 12.472C99.467 12.472 97.115 14.8 97.115 18.856C97.115 22.936 99.299 25.288 103.019 25.288C105.155 25.288 106.739 24.64 108.035 23.368L107.459 22.384C106.427 22.936 105.275 23.224 104.267 23.224ZM102.971 13.96C104.219 13.96 104.699 14.872 104.699 17.776H100.979C101.147 14.848 101.747 13.96 102.971 13.96ZM117.834 12.784H114.93C114.93 11.56 115.026 10.12 115.146 9.256L112.65 9.568C112.05 10.48 111.69 11.656 111.546 12.736L109.938 13.384V14.608H111.378V21.856C111.378 24.496 112.602 25.312 114.786 25.312C116.106 25.312 117.138 25.024 118.05 24.448L117.69 23.2C117.138 23.416 116.754 23.488 116.322 23.488C115.122 23.488 114.954 22.84 114.954 21.064V14.608H117.45L117.834 12.784Z" fill="white"/>
</g>
<defs>
<linearGradient id="paint0_linear_7621_295" x1="8.20124" y1="0.600987" x2="23.9199" y2="31.111" gradientUnits="userSpaceOnUse">
<stop stop-color="#33343B"/>
<stop offset="1" stop-color="#18191E"/>
</linearGradient>
<radialGradient id="paint1_radial_7621_295" cx="0" cy="0" r="1" gradientUnits="userSpaceOnUse" gradientTransform="translate(14.0702 2.12162) rotate(54.83) scale(24.6221 44.4796)">
<stop stop-color="#0A0909"/>
<stop offset="1" stop-opacity="0.4"/>
</radialGradient>
<radialGradient id="paint2_radial_7621_295" cx="0" cy="0" r="1" gradientUnits="userSpaceOnUse" gradientTransform="translate(26.5288 10.3966) rotate(127.07) scale(17.4451 32.0445)">
<stop/>
<stop offset="1" stop-color="#0F1010"/>
</radialGradient>
<radialGradient id="paint3_radial_7621_295" cx="0" cy="0" r="1" gradientUnits="userSpaceOnUse" gradientTransform="translate(14.2438 8.32618) rotate(53.368) scale(23.566 43.2925)">
<stop/>
<stop offset="1" stop-opacity="0.93"/>
</radialGradient>
<radialGradient id="paint4_radial_7621_295" cx="0" cy="0" r="1" gradientUnits="userSpaceOnUse" gradientTransform="translate(14.0702 2.12162) rotate(54.83) scale(24.6221 44.4796)">
<stop stop-color="white"/>
<stop offset="1" stop-color="#FAFAFA"/>
</radialGradient>
<radialGradient id="paint5_radial_7621_295" cx="0" cy="0" r="1" gradientUnits="userSpaceOnUse" gradientTransform="translate(26.5288 10.3966) rotate(127.07) scale(17.4451 32.0445)">
<stop stop-color="#F1F6FB"/>
<stop offset="1" stop-color="#E5F4F5" stop-opacity="0.31"/>
</radialGradient>
<radialGradient id="paint6_radial_7621_295" cx="0" cy="0" r="1" gradientUnits="userSpaceOnUse" gradientTransform="translate(14.1043 8.22322) rotate(53.368) scale(23.566 2.25756)">
<stop stop-color="white"/>
<stop offset="1" stop-color="white"/>
</radialGradient>
<clipPath id="clip0_7621_295">
<rect width="119.619" height="32" fill="white"/>
</clipPath>
</defs>
</svg>
